<svg version="1" xmlns="http://www.w3.org/2000/svg" width="800" height="800" viewBox="0 0 600.000000 600.000000"><path d="M0 300v300h600V0H0v300zm198-184.7c77.2-.9 99.1-.7 120 1.2 107 10 166.5 62 177 154.8 1.6 13.7 1.3 44.4-.4 57-5.4 37.6-18.8 68.2-41.6 94.5-26.7 30.9-68.3 53.4-116 63.1-27.1 5.5-27.7 5.5-136.7 5.6H99v-10.2l7.4-.7c19.5-1.8 26-6.7 28.6-21.7.8-4.5 1-52 .8-159.4l-.3-153-2.3-5.6c-4.1-10.2-9.1-12.9-29.4-15.4l-4.8-.6v-10.4l16.7.8c9.3.4 46.3.4 82.3 0z"/><path d="M269.5 125c-12.4 2.3-18.7 7.3-22.1 17.8-1.8 5.4-1.9 12.4-2.2 156.2-.2 102.3.1 152.7.8 157.5 2.2 14.3 7.9 21.3 19.7 24.1 7.6 1.8 29.2 1.8 38.5 0 44.7-8.6 68.1-45.5 77.5-122.1 2-16.7 2.9-76.6 1.4-96.5-6.1-81.1-29.6-123.6-74.6-135-9.1-2.4-31-3.5-39-2z"/></svg>